<?xml version="1.0" encoding="UTF-8"?>
<svg xmlns="http://www.w3.org/2000/svg"
     xmlns:xlink="http://www.w3.org/1999/xlink"
     xmlns:gadfly="http://www.gadflyjl.org/ns"
     version="1.2"
     width="150mm" height="90mm" viewBox="0 0 150 90"
     stroke="none"
     fill="#000000"
     stroke-width="0.3"
     font-size="3.88"
>
<g stroke="#000000" stroke-opacity="0.000" fill="#222831" id="img-dc261c8d-1">
  <rect x="0" y="0" width="150" height="90"/>
</g>
<g class="plotroot xscalable yscalable" id="img-dc261c8d-2">
  <g font-size="3.88" font-family="'PT Sans','Helvetica Neue','Helvetica',sans-serif" fill="#A1A1A1" stroke="#000000" stroke-opacity="0.000" id="img-dc261c8d-3">
    <text x="81.64" y="78.39" text-anchor="middle" dy="0.6em">A</text>
  </g>
  <g class="guide xlabels" font-size="2.82" font-family="'PT Sans Caption','Helvetica Neue','Helvetica',sans-serif" fill="#A1A1A1" id="img-dc261c8d-4">
    <text x="20.28" y="71.72" text-anchor="middle" dy="0.6em">0.0</text>
    <text x="50.96" y="71.72" text-anchor="middle" dy="0.6em">2.5</text>
    <text x="81.64" y="71.72" text-anchor="middle" dy="0.6em">5.0</text>
    <text x="112.32" y="71.72" text-anchor="middle" dy="0.6em">7.5</text>
    <text x="143" y="71.72" text-anchor="middle" dy="0.6em">10.0</text>
  </g>
<g clip-path="url(#img-dc261c8d-5)">
  <g id="img-dc261c8d-6">
    <g pointer-events="visible" opacity="1" fill="#222831" stroke="#000000" stroke-opacity="0.000" class="guide background" id="img-dc261c8d-7">
      <rect x="18.28" y="5" width="126.72" height="65.72"/>
    </g>
    <g class="guide ygridlines xfixed" stroke-dasharray="0.5,0.5" stroke-width="0.2" stroke="#575757" id="img-dc261c8d-8">
      <path fill="none" d="M18.28,68.72 L 145 68.72"/>
      <path fill="none" d="M18.28,37.86 L 145 37.86"/>
      <path fill="none" d="M18.28,7 L 145 7"/>
    </g>
    <g class="guide xgridlines yfixed" stroke-dasharray="0.5,0.5" stroke-width="0.2" stroke="#575757" id="img-dc261c8d-9">
      <path fill="none" d="M20.28,5 L 20.28 70.72"/>
      <path fill="none" d="M50.96,5 L 50.96 70.72"/>
      <path fill="none" d="M81.64,5 L 81.64 70.72"/>
      <path fill="none" d="M112.32,5 L 112.32 70.72"/>
      <path fill="none" d="M143,5 L 143 70.72"/>
    </g>
    <g class="plotpanel" id="img-dc261c8d-10">
      <g stroke-width="0.3" fill="#000000" fill-opacity="0.000" class="geometry" stroke-dasharray="none" stroke="#FE4365" id="img-dc261c8d-11">
        <path fill="none" d="M32.56,68.1 L 34.81 67.85 37.06 67.56 39.32 67.23 41.57 66.86 43.83 66.44 46.08 65.99 48.33 65.49 50.59 64.95 52.84 64.37 55.1 63.75 57.35 63.08 59.6 62.38 61.86 61.63 64.11 60.84 66.37 60.01 68.62 59.14 70.87 58.23 73.13 57.27 75.38 56.27 77.64 55.24 79.89 54.16 82.14 53.03 84.4 51.87 86.65 50.66 88.9 49.42 91.16 48.13 93.41 46.8 95.67 45.43 97.92 44.01 100.17 42.56 102.43 41.06 104.68 39.52 106.94 37.94 109.19 36.32 111.44 34.66 113.7 32.95 115.95 31.21 118.21 29.42 120.46 27.59 122.71 25.72 124.97 23.8 127.22 21.85 129.48 19.85 131.73 17.81 133.98 15.74 136.24 13.61 138.49 11.45 140.75 9.25 143 7"/>
      </g>
    </g>
  </g>
</g>
  <g class="guide ylabels" font-size="2.82" font-family="'PT Sans Caption','Helvetica Neue','Helvetica',sans-serif" fill="#A1A1A1" id="img-dc261c8d-12">
    <text x="17.28" y="68.72" text-anchor="end" dy="0.35em">0</text>
    <text x="17.28" y="37.86" text-anchor="end" dy="0.35em">50</text>
    <text x="17.28" y="7" text-anchor="end" dy="0.35em">100</text>
  </g>
  <g font-size="3.88" font-family="'PT Sans','Helvetica Neue','Helvetica',sans-serif" fill="#A1A1A1" stroke="#000000" stroke-opacity="0.000" id="img-dc261c8d-13">
    <text x="9.26" y="37.86" text-anchor="end" dy="0.35em">B</text>
  </g>
</g>
<defs>
  <clipPath id="img-dc261c8d-5">
  <path d="M18.28,5 L 145 5 145 70.72 18.28 70.72" />
</clipPath>
</defs>
</svg>
